<mxfile host="app.diagrams.net" modified="2022-06-06T01:33:24.924Z" agent="5.0 (Macintosh; Intel Mac OS X 10_15_7) AppleWebKit/537.36 (KHTML, like Gecko) Chrome/102.0.5005.61 Safari/537.36" etag="FRWQBYvDri9QRLxfHAud" version="19.0.0" type="github">
  <diagram id="WVlgz83tZBo8iLgR9yQX" name="Page-1">
    <mxGraphModel dx="1366" dy="801" grid="1" gridSize="10" guides="1" tooltips="1" connect="1" arrows="1" fold="1" page="1" pageScale="1" pageWidth="827" pageHeight="1169" math="0" shadow="0">
      <root>
        <mxCell id="0" />
        <mxCell id="1" parent="0" />
        <mxCell id="JHEUnNlIpGzuHOv1-H3l-1" value="DeviceManager" style="shape=module;align=left;spacingLeft=20;align=center;verticalAlign=top;" vertex="1" parent="1">
          <mxGeometry x="240" y="40" width="220" height="50" as="geometry" />
        </mxCell>
      </root>
    </mxGraphModel>
  </diagram>
</mxfile>
